<svg width="28" height="28" viewBox="0 0 28 28" fill="none" xmlns="http://www.w3.org/2000/svg">
<path d="M14.0001 27.3334C6.63628 27.3334 0.666748 21.3638 0.666748 14C0.666748 6.63622 6.63628 0.666687 14.0001 0.666687C21.3639 0.666687 27.3334 6.63622 27.3334 14C27.3253 21.3605 21.3605 27.3253 14.0001 27.3334ZM8.30275 17.716C8.13075 17.717 7.95943 17.7376 7.79208 17.7774L7.59208 17.832L6.80008 19.188C6.49964 19.6892 6.64459 20.3378 7.12978 20.6634C7.61497 20.989 8.27019 20.8773 8.62008 20.4094L8.70275 20.2854L9.75608 18.4574C9.41001 17.9945 8.86733 17.7202 8.28941 17.716H8.30275ZM15.6147 9.54669C15.1999 9.93638 14.9249 10.4518 14.8321 11.0134C14.6834 11.7877 14.8259 12.5896 15.2321 13.2654L19.2854 20.2867C19.4834 20.6215 19.8431 20.8272 20.2321 20.828C20.3989 20.8275 20.5635 20.7892 20.7134 20.716C21.2274 20.4625 21.4598 19.8561 21.2467 19.324L21.1814 19.1907L20.1147 17.336H21.7014C22.2779 17.3312 22.7524 16.881 22.7875 16.3056C22.8226 15.7301 22.4064 15.2256 21.8347 15.1507L21.7014 15.1427H18.8481L15.9227 10.076L15.6174 9.54269L15.6147 9.54669ZM6.34675 15.1334C6.20544 15.1335 6.06552 15.1611 5.93475 15.2147C5.80223 15.27 5.68176 15.3506 5.58008 15.452C5.37466 15.658 5.25954 15.9371 5.26008 16.228C5.26027 16.7805 5.67074 17.247 6.21875 17.3174L6.35208 17.324H16.3254C16.5492 16.8742 16.5407 16.3438 16.3027 15.9014C16.1 15.4865 15.7031 15.2007 15.2454 15.14L15.0841 15.132H11.6827L16.3867 6.98669C16.5316 6.73419 16.5709 6.43468 16.4961 6.15335C16.4216 5.87151 16.2372 5.63135 15.9841 5.48669C15.5081 5.2126 14.9028 5.33217 14.5667 5.76669L14.4841 5.88935L14.0001 6.73469L13.5214 5.88935C13.3234 5.55458 12.9637 5.34888 12.5747 5.34802C12.4075 5.34862 12.2425 5.3869 12.0921 5.46002C11.5784 5.71453 11.3463 6.32089 11.5587 6.85335L11.6241 6.98669L12.7307 8.93335L9.15075 15.1334H6.34675Z" fill="#FDFDFD"/>
</svg>
