<svg width="28" height="28" viewBox="0 0 28 28" fill="none" xmlns="http://www.w3.org/2000/svg">
<path d="M14 0.666656C15.751 0.666656 17.4848 1.01153 19.1025 1.6816C20.7201 2.35166 22.19 3.33378 23.4281 4.5719C24.6662 5.81001 25.6484 7.27987 26.3184 8.89754C26.9885 10.5152 27.3334 12.249 27.3334 14C27.3334 17.5362 25.9286 20.9276 23.4281 23.4281C20.9276 25.9286 17.5362 27.3333 14 27.3333C12.2491 27.3333 10.5152 26.9884 8.89757 26.3184C7.2799 25.6483 5.81004 24.6662 4.57193 23.4281C2.07144 20.9276 0.666687 17.5362 0.666687 14C0.666687 10.4638 2.07144 7.07238 4.57193 4.5719C7.07241 2.07141 10.4638 0.666656 14 0.666656ZM14 3.33332C11.171 3.33332 8.45794 4.45713 6.45755 6.45752C4.45716 8.45791 3.33335 11.171 3.33335 14C3.33335 16.7867 4.40002 19.3333 6.14669 21.2133L11.1734 11.1733L21.2134 6.14666C19.251 4.33071 16.6737 3.32549 14 3.33332ZM14 24.6667C16.829 24.6667 19.5421 23.5428 21.5425 21.5425C23.5429 19.5421 24.6667 16.829 24.6667 14C24.6667 11.2133 23.6 8.66666 21.8534 6.78666L16.8267 16.8267L6.78669 21.8533C8.74902 23.6693 11.3264 24.6745 14 24.6667ZM14 14L12.9734 12.9733L10.9334 17.0667L15.0267 15.0267L14 14ZM14 21.3333H15.3334V23.3333H14V21.3333ZM19.1734 19.1867L20.12 18.24L21.5334 19.6533L20.5867 20.6L19.1734 19.1867ZM21.3334 14V12.6667H23.3334V14H21.3334ZM14 6.66666H12.6667V4.66666H14V6.66666ZM8.82669 8.81332L7.88002 9.75999L6.46669 8.34666L7.41335 7.39999L8.82669 8.81332ZM6.66669 14V15.3333H4.66669V14H6.66669Z" fill="#FDFDFD"/>
</svg>
